<?xml version="1.0" encoding="UTF-8" standalone="no"?><!-- Generator: Gravit.io --><svg xmlns="http://www.w3.org/2000/svg" xmlns:xlink="http://www.w3.org/1999/xlink" style="isolation:isolate" viewBox="0 0 544 303" width="544pt" height="303pt"><defs><clipPath id="_clipPath_gPHol99emSqyhpZBSIPlzwPHeBZ64rOv"><rect width="544" height="303"/></clipPath></defs><g clip-path="url(#_clipPath_gPHol99emSqyhpZBSIPlzwPHeBZ64rOv)"><path d=" M 464.532 118.385 L 463.517 111.937 L 463.517 111.937 Q 474.175 110.284 476.543 108.548 L 476.543 108.548 L 476.543 108.548 Q 478.912 106.812 478.912 101.686 L 478.912 101.686 L 478.912 12.404 L 478.912 12.404 Q 457.088 12.735 455.565 13.396 L 455.565 13.396 L 455.565 13.396 Q 454.043 14.057 453.197 14.884 L 453.197 14.884 L 453.197 14.884 Q 451.167 17.529 448.291 33.567 L 448.291 33.567 L 439.663 32.906 L 439.663 32.906 Q 439.494 30.426 439.494 23.234 L 439.494 23.234 L 439.494 23.234 Q 439.494 16.041 441.016 3.806 L 441.016 3.806 L 533.217 3.806 L 533.217 3.806 Q 534.74 16.041 534.74 23.234 L 534.74 23.234 L 534.74 23.234 Q 534.74 30.426 534.571 32.906 L 534.571 32.906 L 525.943 33.567 L 525.943 33.567 Q 523.067 17.529 520.867 14.884 L 520.867 14.884 L 520.867 14.884 Q 520.191 14.057 518.668 13.396 L 518.668 13.396 L 518.668 13.396 Q 517.145 12.735 495.322 12.404 L 495.322 12.404 L 495.322 105.654 L 495.322 105.654 Q 495.322 109.457 498.705 109.953 L 498.705 109.953 L 511.732 111.937 L 511.055 118.385 L 464.532 118.385 L 464.532 118.385 Z  M 43.903 118.385 L 2.454 118.385 L 1.439 111.937 L 1.439 111.937 Q 10.406 110.449 12.351 108.63 L 12.351 108.63 L 12.351 108.63 Q 14.297 106.812 14.297 101.686 L 14.297 101.686 L 14.297 20.506 L 14.297 20.506 Q 14.297 15.38 12.351 13.561 L 12.351 13.561 L 12.351 13.561 Q 10.406 11.743 1.439 10.255 L 1.439 10.255 L 2.454 3.806 L 43.903 3.806 L 44.579 10.255 L 34.09 12.239 L 34.09 12.239 Q 30.707 12.9 30.707 16.537 L 30.707 16.537 L 30.707 54.4 L 87.042 54.4 L 87.042 20.506 L 87.042 20.506 Q 87.042 15.38 85.097 13.561 L 85.097 13.561 L 85.097 13.561 Q 83.151 11.743 74.185 10.255 L 74.185 10.255 L 75.2 3.806 L 116.648 3.806 L 117.325 10.255 L 106.836 12.239 L 106.836 12.239 Q 103.452 12.9 103.452 16.537 L 103.452 16.537 L 103.452 105.654 L 103.452 105.654 Q 103.452 109.292 106.836 109.953 L 106.836 109.953 L 117.325 111.937 L 116.648 118.385 L 75.2 118.385 L 74.185 111.937 L 74.185 111.937 Q 83.151 110.449 85.097 108.63 L 85.097 108.63 L 85.097 108.63 Q 87.042 106.812 87.042 101.686 L 87.042 101.686 L 87.042 64.32 L 30.707 64.32 L 30.707 105.654 L 30.707 105.654 Q 30.707 109.292 34.09 109.953 L 34.09 109.953 L 44.579 111.937 L 43.903 118.385 L 43.903 118.385 Z  M 167.023 119.873 L 167.023 119.873 L 167.023 119.873 Q 141.392 119.873 127.52 104.414 L 127.52 104.414 L 127.52 104.414 Q 113.648 88.955 113.648 62.088 L 113.648 62.088 L 113.648 62.088 Q 113.648 35.221 128.366 18.77 L 128.366 18.77 L 128.366 18.77 Q 143.084 2.318 168.714 2.318 L 168.714 2.318 L 168.714 2.318 Q 194.344 2.318 208.217 17.447 L 208.217 17.447 L 208.217 17.447 Q 222.089 32.575 222.089 59.443 L 222.089 59.443 L 222.089 59.443 Q 222.089 86.31 207.371 103.092 L 207.371 103.092 L 207.371 103.092 Q 192.653 119.873 167.023 119.873 Z  M 169.306 111.111 L 169.306 111.111 L 169.306 111.111 Q 178.442 111.111 185.294 106.977 L 185.294 106.977 L 185.294 106.977 Q 192.145 102.844 196.036 95.569 L 196.036 95.569 L 196.036 95.569 Q 203.311 81.515 203.311 60.187 L 203.311 60.187 L 203.311 60.187 Q 203.311 38.858 193.752 24.97 L 193.752 24.97 L 193.752 24.97 Q 184.194 11.081 166.43 11.081 L 166.43 11.081 L 166.43 11.081 Q 157.295 11.081 150.443 15.132 L 150.443 15.132 L 150.443 15.132 Q 143.592 19.183 139.87 26.292 L 139.87 26.292 L 139.87 26.292 Q 132.426 40.015 132.426 61.261 L 132.426 61.261 L 132.426 61.261 Q 132.426 82.507 141.9 96.809 L 141.9 96.809 L 141.9 96.809 Q 151.374 111.111 169.306 111.111 Z  M 309.09 77.216 L 309.09 23.647 L 309.09 23.647 Q 309.09 16.372 306.299 13.892 L 306.299 13.892 L 306.299 13.892 Q 303.507 11.412 292.849 10.255 L 292.849 10.255 L 293.864 3.806 L 333.621 3.806 L 334.297 10.255 L 323.809 12.239 L 323.809 12.239 Q 320.763 12.9 320.594 14.553 L 320.594 14.553 L 320.594 14.553 Q 320.425 15.215 320.425 16.537 L 320.425 16.537 L 320.425 75.894 L 320.425 75.894 Q 320.425 96.23 309.09 108.052 L 309.09 108.052 L 309.09 108.052 Q 297.755 119.873 275.086 119.873 L 275.086 119.873 L 275.086 119.873 Q 231.438 119.873 231.438 77.216 L 231.438 77.216 L 231.438 20.506 L 231.438 20.506 Q 231.438 15.38 229.493 13.561 L 229.493 13.561 L 229.493 13.561 Q 227.547 11.743 218.581 10.255 L 218.581 10.255 L 219.596 3.806 L 261.044 3.806 L 261.721 10.255 L 251.232 12.239 L 251.232 12.239 Q 247.849 12.9 247.849 16.537 L 247.849 16.537 L 247.849 74.736 L 247.849 74.736 Q 247.849 91.601 254.954 100.198 L 254.954 100.198 L 254.954 100.198 Q 262.059 108.796 278.046 108.796 L 278.046 108.796 L 278.046 108.796 Q 294.034 108.796 301.562 99.537 L 301.562 99.537 L 301.562 99.537 Q 309.09 90.278 309.09 77.216 L 309.09 77.216 L 309.09 77.216 Z  M 378.159 118.385 L 328.928 118.385 L 327.913 111.937 L 327.913 111.937 Q 336.88 110.449 338.825 108.63 L 338.825 108.63 L 338.825 108.63 Q 340.771 106.812 340.771 101.686 L 340.771 101.686 L 340.771 20.506 L 340.771 20.506 Q 340.771 15.38 338.825 13.561 L 338.825 13.561 L 338.825 13.561 Q 336.88 11.743 327.913 10.255 L 327.913 10.255 L 328.928 3.806 L 381.88 3.806 L 381.88 3.806 Q 396.43 3.806 407.088 8.353 L 407.088 8.353 L 407.088 8.353 Q 417.746 12.9 423.667 20.836 L 423.667 20.836 L 423.667 20.836 Q 435.171 36.047 435.171 57.541 L 435.171 57.541 L 435.171 57.541 Q 435.171 81.184 422.313 98.71 L 422.313 98.71 L 422.313 98.71 Q 415.885 107.638 404.465 113.012 L 404.465 113.012 L 404.465 113.012 Q 393.046 118.385 378.159 118.385 L 378.159 118.385 L 378.159 118.385 Z  M 357.181 12.569 L 357.181 103.009 L 357.181 103.009 Q 357.181 106.646 360.733 107.308 L 360.733 107.308 L 360.733 107.308 Q 372.576 109.623 378.666 109.623 L 378.666 109.623 L 378.666 109.623 Q 397.445 109.623 406.918 96.561 L 406.918 96.561 L 406.918 96.561 Q 416.392 83.499 416.392 61.675 L 416.392 61.675 L 416.392 61.675 Q 416.392 47.952 412.755 37.866 L 412.755 37.866 L 412.755 37.866 Q 409.118 27.78 403.027 22.49 L 403.027 22.49 L 403.027 22.49 Q 391.523 12.569 377.989 12.569 L 377.989 12.569 L 357.181 12.569 L 357.181 12.569 Z " fill="rgb(0,0,0)"/><path d=" M 464.532 118.385 L 463.517 111.937 L 463.517 111.937 Q 474.175 110.284 476.543 108.548 L 476.543 108.548 L 476.543 108.548 Q 478.912 106.812 478.912 101.686 L 478.912 101.686 L 478.912 12.404 L 478.912 12.404 Q 457.088 12.735 455.565 13.396 L 455.565 13.396 L 455.565 13.396 Q 454.043 14.057 453.197 14.884 L 453.197 14.884 L 453.197 14.884 Q 451.167 17.529 448.291 33.567 L 448.291 33.567 L 439.663 32.906 L 439.663 32.906 Q 439.494 30.426 439.494 23.234 L 439.494 23.234 L 439.494 23.234 Q 439.494 16.041 441.016 3.806 L 441.016 3.806 L 533.217 3.806 L 533.217 3.806 Q 534.74 16.041 534.74 23.234 L 534.74 23.234 L 534.74 23.234 Q 534.74 30.426 534.571 32.906 L 534.571 32.906 L 525.943 33.567 L 525.943 33.567 Q 523.067 17.529 520.867 14.884 L 520.867 14.884 L 520.867 14.884 Q 520.191 14.057 518.668 13.396 L 518.668 13.396 L 518.668 13.396 Q 517.145 12.735 495.322 12.404 L 495.322 12.404 L 495.322 105.654 L 495.322 105.654 Q 495.322 109.457 498.705 109.953 L 498.705 109.953 L 511.732 111.937 L 511.055 118.385 L 464.532 118.385 L 464.532 118.385 Z  M 43.903 118.385 L 2.454 118.385 L 1.439 111.937 L 1.439 111.937 Q 10.406 110.449 12.351 108.63 L 12.351 108.63 L 12.351 108.63 Q 14.297 106.812 14.297 101.686 L 14.297 101.686 L 14.297 20.506 L 14.297 20.506 Q 14.297 15.38 12.351 13.561 L 12.351 13.561 L 12.351 13.561 Q 10.406 11.743 1.439 10.255 L 1.439 10.255 L 2.454 3.806 L 43.903 3.806 L 44.579 10.255 L 34.09 12.239 L 34.09 12.239 Q 30.707 12.9 30.707 16.537 L 30.707 16.537 L 30.707 54.4 L 87.042 54.4 L 87.042 20.506 L 87.042 20.506 Q 87.042 15.38 85.097 13.561 L 85.097 13.561 L 85.097 13.561 Q 83.151 11.743 74.185 10.255 L 74.185 10.255 L 75.2 3.806 L 116.648 3.806 L 117.325 10.255 L 106.836 12.239 L 106.836 12.239 Q 103.452 12.9 103.452 16.537 L 103.452 16.537 L 103.452 105.654 L 103.452 105.654 Q 103.452 109.292 106.836 109.953 L 106.836 109.953 L 117.325 111.937 L 116.648 118.385 L 75.2 118.385 L 74.185 111.937 L 74.185 111.937 Q 83.151 110.449 85.097 108.63 L 85.097 108.63 L 85.097 108.63 Q 87.042 106.812 87.042 101.686 L 87.042 101.686 L 87.042 64.32 L 30.707 64.32 L 30.707 105.654 L 30.707 105.654 Q 30.707 109.292 34.09 109.953 L 34.09 109.953 L 44.579 111.937 L 43.903 118.385 L 43.903 118.385 Z  M 167.023 119.873 L 167.023 119.873 L 167.023 119.873 Q 141.392 119.873 127.52 104.414 L 127.52 104.414 L 127.52 104.414 Q 113.648 88.955 113.648 62.088 L 113.648 62.088 L 113.648 62.088 Q 113.648 35.221 128.366 18.77 L 128.366 18.77 L 128.366 18.77 Q 143.084 2.318 168.714 2.318 L 168.714 2.318 L 168.714 2.318 Q 194.344 2.318 208.217 17.447 L 208.217 17.447 L 208.217 17.447 Q 222.089 32.575 222.089 59.443 L 222.089 59.443 L 222.089 59.443 Q 222.089 86.31 207.371 103.092 L 207.371 103.092 L 207.371 103.092 Q 192.653 119.873 167.023 119.873 Z  M 169.306 111.111 L 169.306 111.111 L 169.306 111.111 Q 178.442 111.111 185.294 106.977 L 185.294 106.977 L 185.294 106.977 Q 192.145 102.844 196.036 95.569 L 196.036 95.569 L 196.036 95.569 Q 203.311 81.515 203.311 60.187 L 203.311 60.187 L 203.311 60.187 Q 203.311 38.858 193.752 24.97 L 193.752 24.97 L 193.752 24.97 Q 184.194 11.081 166.43 11.081 L 166.43 11.081 L 166.43 11.081 Q 157.295 11.081 150.443 15.132 L 150.443 15.132 L 150.443 15.132 Q 143.592 19.183 139.87 26.292 L 139.87 26.292 L 139.87 26.292 Q 132.426 40.015 132.426 61.261 L 132.426 61.261 L 132.426 61.261 Q 132.426 82.507 141.9 96.809 L 141.9 96.809 L 141.9 96.809 Q 151.374 111.111 169.306 111.111 Z  M 309.09 77.216 L 309.09 23.647 L 309.09 23.647 Q 309.09 16.372 306.299 13.892 L 306.299 13.892 L 306.299 13.892 Q 303.507 11.412 292.849 10.255 L 292.849 10.255 L 293.864 3.806 L 333.621 3.806 L 334.297 10.255 L 323.809 12.239 L 323.809 12.239 Q 320.763 12.9 320.594 14.553 L 320.594 14.553 L 320.594 14.553 Q 320.425 15.215 320.425 16.537 L 320.425 16.537 L 320.425 75.894 L 320.425 75.894 Q 320.425 96.23 309.09 108.052 L 309.09 108.052 L 309.09 108.052 Q 297.755 119.873 275.086 119.873 L 275.086 119.873 L 275.086 119.873 Q 231.438 119.873 231.438 77.216 L 231.438 77.216 L 231.438 20.506 L 231.438 20.506 Q 231.438 15.38 229.493 13.561 L 229.493 13.561 L 229.493 13.561 Q 227.547 11.743 218.581 10.255 L 218.581 10.255 L 219.596 3.806 L 261.044 3.806 L 261.721 10.255 L 251.232 12.239 L 251.232 12.239 Q 247.849 12.9 247.849 16.537 L 247.849 16.537 L 247.849 74.736 L 247.849 74.736 Q 247.849 91.601 254.954 100.198 L 254.954 100.198 L 254.954 100.198 Q 262.059 108.796 278.046 108.796 L 278.046 108.796 L 278.046 108.796 Q 294.034 108.796 301.562 99.537 L 301.562 99.537 L 301.562 99.537 Q 309.09 90.278 309.09 77.216 L 309.09 77.216 L 309.09 77.216 Z  M 378.159 118.385 L 328.928 118.385 L 327.913 111.937 L 327.913 111.937 Q 336.88 110.449 338.825 108.63 L 338.825 108.63 L 338.825 108.63 Q 340.771 106.812 340.771 101.686 L 340.771 101.686 L 340.771 20.506 L 340.771 20.506 Q 340.771 15.38 338.825 13.561 L 338.825 13.561 L 338.825 13.561 Q 336.88 11.743 327.913 10.255 L 327.913 10.255 L 328.928 3.806 L 381.88 3.806 L 381.88 3.806 Q 396.43 3.806 407.088 8.353 L 407.088 8.353 L 407.088 8.353 Q 417.746 12.9 423.667 20.836 L 423.667 20.836 L 423.667 20.836 Q 435.171 36.047 435.171 57.541 L 435.171 57.541 L 435.171 57.541 Q 435.171 81.184 422.313 98.71 L 422.313 98.71 L 422.313 98.71 Q 415.885 107.638 404.465 113.012 L 404.465 113.012 L 404.465 113.012 Q 393.046 118.385 378.159 118.385 L 378.159 118.385 L 378.159 118.385 Z  M 357.181 12.569 L 357.181 103.009 L 357.181 103.009 Q 357.181 106.646 360.733 107.308 L 360.733 107.308 L 360.733 107.308 Q 372.576 109.623 378.666 109.623 L 378.666 109.623 L 378.666 109.623 Q 397.445 109.623 406.918 96.561 L 406.918 96.561 L 406.918 96.561 Q 416.392 83.499 416.392 61.675 L 416.392 61.675 L 416.392 61.675 Q 416.392 47.952 412.755 37.866 L 412.755 37.866 L 412.755 37.866 Q 409.118 27.78 403.027 22.49 L 403.027 22.49 L 403.027 22.49 Q 391.523 12.569 377.989 12.569 L 377.989 12.569 L 357.181 12.569 L 357.181 12.569 Z " fill="rgb(0,0,0)"/><g style="isolation: isolate;"><path d=" M 464.532 118.385 L 463.517 111.937 L 463.517 111.937 Q 474.175 110.284 476.543 108.548 L 476.543 108.548 L 476.543 108.548 Q 478.912 106.812 478.912 101.686 L 478.912 101.686 L 478.912 12.404 L 478.912 12.404 Q 457.088 12.735 455.565 13.396 L 455.565 13.396 L 455.565 13.396 Q 454.043 14.057 453.197 14.884 L 453.197 14.884 L 453.197 14.884 Q 451.167 17.529 448.291 33.567 L 448.291 33.567 L 439.663 32.906 L 439.663 32.906 Q 439.494 30.426 439.494 23.234 L 439.494 23.234 L 439.494 23.234 Q 439.494 16.041 441.016 3.806 L 441.016 3.806 L 533.217 3.806 L 533.217 3.806 Q 534.74 16.041 534.74 23.234 L 534.74 23.234 L 534.74 23.234 Q 534.74 30.426 534.571 32.906 L 534.571 32.906 L 525.943 33.567 L 525.943 33.567 Q 523.067 17.529 520.867 14.884 L 520.867 14.884 L 520.867 14.884 Q 520.191 14.057 518.668 13.396 L 518.668 13.396 L 518.668 13.396 Q 517.145 12.735 495.322 12.404 L 495.322 12.404 L 495.322 105.654 L 495.322 105.654 Q 495.322 109.457 498.705 109.953 L 498.705 109.953 L 511.732 111.937 L 511.055 118.385 L 464.532 118.385 L 464.532 118.385 Z  M 43.903 118.385 L 2.454 118.385 L 1.439 111.937 L 1.439 111.937 Q 10.406 110.449 12.351 108.63 L 12.351 108.63 L 12.351 108.63 Q 14.297 106.812 14.297 101.686 L 14.297 101.686 L 14.297 20.506 L 14.297 20.506 Q 14.297 15.38 12.351 13.561 L 12.351 13.561 L 12.351 13.561 Q 10.406 11.743 1.439 10.255 L 1.439 10.255 L 2.454 3.806 L 43.903 3.806 L 44.579 10.255 L 34.09 12.239 L 34.09 12.239 Q 30.707 12.9 30.707 16.537 L 30.707 16.537 L 30.707 54.4 L 87.042 54.4 L 87.042 20.506 L 87.042 20.506 Q 87.042 15.38 85.097 13.561 L 85.097 13.561 L 85.097 13.561 Q 83.151 11.743 74.185 10.255 L 74.185 10.255 L 75.2 3.806 L 116.648 3.806 L 117.325 10.255 L 106.836 12.239 L 106.836 12.239 Q 103.452 12.9 103.452 16.537 L 103.452 16.537 L 103.452 105.654 L 103.452 105.654 Q 103.452 109.292 106.836 109.953 L 106.836 109.953 L 117.325 111.937 L 116.648 118.385 L 75.2 118.385 L 74.185 111.937 L 74.185 111.937 Q 83.151 110.449 85.097 108.63 L 85.097 108.63 L 85.097 108.63 Q 87.042 106.812 87.042 101.686 L 87.042 101.686 L 87.042 64.32 L 30.707 64.32 L 30.707 105.654 L 30.707 105.654 Q 30.707 109.292 34.09 109.953 L 34.09 109.953 L 44.579 111.937 L 43.903 118.385 L 43.903 118.385 Z  M 167.023 119.873 L 167.023 119.873 L 167.023 119.873 Q 141.392 119.873 127.52 104.414 L 127.52 104.414 L 127.52 104.414 Q 113.648 88.955 113.648 62.088 L 113.648 62.088 L 113.648 62.088 Q 113.648 35.221 128.366 18.77 L 128.366 18.77 L 128.366 18.77 Q 143.084 2.318 168.714 2.318 L 168.714 2.318 L 168.714 2.318 Q 194.344 2.318 208.217 17.447 L 208.217 17.447 L 208.217 17.447 Q 222.089 32.575 222.089 59.443 L 222.089 59.443 L 222.089 59.443 Q 222.089 86.31 207.371 103.092 L 207.371 103.092 L 207.371 103.092 Q 192.653 119.873 167.023 119.873 Z  M 169.306 111.111 L 169.306 111.111 L 169.306 111.111 Q 178.442 111.111 185.294 106.977 L 185.294 106.977 L 185.294 106.977 Q 192.145 102.844 196.036 95.569 L 196.036 95.569 L 196.036 95.569 Q 203.311 81.515 203.311 60.187 L 203.311 60.187 L 203.311 60.187 Q 203.311 38.858 193.752 24.97 L 193.752 24.97 L 193.752 24.97 Q 184.194 11.081 166.43 11.081 L 166.43 11.081 L 166.43 11.081 Q 157.295 11.081 150.443 15.132 L 150.443 15.132 L 150.443 15.132 Q 143.592 19.183 139.87 26.292 L 139.87 26.292 L 139.87 26.292 Q 132.426 40.015 132.426 61.261 L 132.426 61.261 L 132.426 61.261 Q 132.426 82.507 141.9 96.809 L 141.9 96.809 L 141.9 96.809 Q 151.374 111.111 169.306 111.111 Z  M 309.09 77.216 L 309.09 23.647 L 309.09 23.647 Q 309.09 16.372 306.299 13.892 L 306.299 13.892 L 306.299 13.892 Q 303.507 11.412 292.849 10.255 L 292.849 10.255 L 293.864 3.806 L 333.621 3.806 L 334.297 10.255 L 323.809 12.239 L 323.809 12.239 Q 320.763 12.9 320.594 14.553 L 320.594 14.553 L 320.594 14.553 Q 320.425 15.215 320.425 16.537 L 320.425 16.537 L 320.425 75.894 L 320.425 75.894 Q 320.425 96.23 309.09 108.052 L 309.09 108.052 L 309.09 108.052 Q 297.755 119.873 275.086 119.873 L 275.086 119.873 L 275.086 119.873 Q 231.438 119.873 231.438 77.216 L 231.438 77.216 L 231.438 20.506 L 231.438 20.506 Q 231.438 15.38 229.493 13.561 L 229.493 13.561 L 229.493 13.561 Q 227.547 11.743 218.581 10.255 L 218.581 10.255 L 219.596 3.806 L 261.044 3.806 L 261.721 10.255 L 251.232 12.239 L 251.232 12.239 Q 247.849 12.9 247.849 16.537 L 247.849 16.537 L 247.849 74.736 L 247.849 74.736 Q 247.849 91.601 254.954 100.198 L 254.954 100.198 L 254.954 100.198 Q 262.059 108.796 278.046 108.796 L 278.046 108.796 L 278.046 108.796 Q 294.034 108.796 301.562 99.537 L 301.562 99.537 L 301.562 99.537 Q 309.09 90.278 309.09 77.216 L 309.09 77.216 L 309.09 77.216 Z  M 378.159 118.385 L 328.928 118.385 L 327.913 111.937 L 327.913 111.937 Q 336.88 110.449 338.825 108.63 L 338.825 108.63 L 338.825 108.63 Q 340.771 106.812 340.771 101.686 L 340.771 101.686 L 340.771 20.506 L 340.771 20.506 Q 340.771 15.38 338.825 13.561 L 338.825 13.561 L 338.825 13.561 Q 336.88 11.743 327.913 10.255 L 327.913 10.255 L 328.928 3.806 L 381.88 3.806 L 381.88 3.806 Q 396.43 3.806 407.088 8.353 L 407.088 8.353 L 407.088 8.353 Q 417.746 12.9 423.667 20.836 L 423.667 20.836 L 423.667 20.836 Q 435.171 36.047 435.171 57.541 L 435.171 57.541 L 435.171 57.541 Q 435.171 81.184 422.313 98.71 L 422.313 98.71 L 422.313 98.71 Q 415.885 107.638 404.465 113.012 L 404.465 113.012 L 404.465 113.012 Q 393.046 118.385 378.159 118.385 L 378.159 118.385 L 378.159 118.385 Z  M 357.181 12.569 L 357.181 103.009 L 357.181 103.009 Q 357.181 106.646 360.733 107.308 L 360.733 107.308 L 360.733 107.308 Q 372.576 109.623 378.666 109.623 L 378.666 109.623 L 378.666 109.623 Q 397.445 109.623 406.918 96.561 L 406.918 96.561 L 406.918 96.561 Q 416.392 83.499 416.392 61.675 L 416.392 61.675 L 416.392 61.675 Q 416.392 47.952 412.755 37.866 L 412.755 37.866 L 412.755 37.866 Q 409.118 27.78 403.027 22.49 L 403.027 22.49 L 403.027 22.49 Q 391.523 12.569 377.989 12.569 L 377.989 12.569 L 357.181 12.569 L 357.181 12.569 Z " fill="none" vector-effect="non-scaling-stroke" stroke-width="3" stroke="rgb(0,0,0)" stroke-linejoin="miter" stroke-linecap="square" stroke-miterlimit="3"/></g><path d=" M 60.331 272.686 L 60.331 278.246 L 12.225 296.217 L 12.225 296.217 Q 10.593 296.862 10.087 297.748 L 10.087 297.748 L 10.087 297.748 Q 9.582 298.634 8.883 301.616 L 8.883 301.616 L 5.774 301.052 L 5.774 281.873 L 8.961 281.55 L 10.437 287.272 L 10.437 287.272 Q 10.515 287.836 10.865 287.836 L 10.865 287.836 L 10.865 287.836 Q 11.214 287.836 12.147 287.514 L 12.147 287.514 L 47.352 275.103 L 47.352 275.103 Q 49.295 274.378 49.994 274.378 L 49.994 274.378 L 49.994 273.572 L 15.411 261.001 L 15.411 261.001 Q 12.38 259.873 11.447 259.873 L 11.447 259.873 L 11.447 259.873 Q 9.971 259.873 8.883 265.755 L 8.883 265.755 L 5.774 265.272 L 5.774 249.396 L 9.038 249.074 L 9.038 249.074 Q 9.66 252.378 10.437 253.265 L 10.437 253.265 L 10.437 253.265 Q 11.214 254.151 13.39 254.957 L 13.39 254.957 L 60.331 272.686 L 60.331 272.686 Z  M 59.631 232.715 L 59.631 247.946 L 56.523 248.51 L 56.523 248.51 Q 55.745 245.448 55.279 244.763 L 55.279 244.763 L 55.279 244.763 Q 54.813 244.078 53.181 243.433 L 53.181 243.433 L 5.075 225.382 L 5.075 218.693 L 54.424 200.239 L 54.424 200.239 Q 55.59 199.836 56.367 195.484 L 56.367 195.484 L 59.631 195.807 L 59.631 214.583 L 56.523 215.067 L 56.523 215.067 Q 55.435 209.426 53.958 209.426 L 53.958 209.426 L 53.958 209.426 Q 53.336 209.426 52.326 209.748 L 52.326 209.748 L 42.223 213.294 L 42.223 234.166 L 53.259 238.276 L 53.259 238.276 Q 54.191 238.598 54.541 238.598 L 54.541 238.598 L 54.541 238.598 Q 54.891 238.598 54.968 238.114 L 54.968 238.114 L 56.445 232.393 L 59.631 232.715 L 59.631 232.715 Z  M 14.012 223.931 L 38.104 232.634 L 38.104 214.664 L 16.266 222.561 L 16.266 222.561 Q 14.634 223.125 14.012 223.125 L 14.012 223.125 L 14.012 223.931 L 14.012 223.931 Z  M 59.631 171.147 L 59.631 191.052 L 56.6 191.536 L 56.6 191.536 Q 55.901 187.265 55.046 186.338 L 55.046 186.338 L 55.046 186.338 Q 54.191 185.411 51.782 185.411 L 51.782 185.411 L 13.624 185.411 L 13.624 185.411 Q 11.214 185.411 10.359 186.338 L 10.359 186.338 L 10.359 186.338 Q 9.505 187.265 8.805 191.536 L 8.805 191.536 L 5.774 191.052 L 5.774 184.847 L 5.774 180.092 L 5.774 175.66 L 44.943 148.1 L 44.943 147.536 L 15.178 147.536 L 15.178 147.536 Q 11.681 147.536 10.515 148.865 L 10.515 148.865 L 10.515 148.865 Q 9.349 150.195 8.805 155.272 L 8.805 155.272 L 5.774 154.788 L 5.774 135.851 L 8.805 135.528 L 9.738 140.525 L 9.738 140.525 Q 10.049 142.136 11.758 142.136 L 11.758 142.136 L 59.631 142.136 L 59.631 146.891 L 59.631 146.891 L 59.631 147.133 L 13.624 179.367 L 13.624 180.012 L 51.86 180.012 L 51.86 180.012 Q 53.803 180.012 54.735 179.246 L 54.735 179.246 L 54.735 179.246 Q 55.668 178.481 55.901 176.466 L 55.901 176.466 L 56.6 170.825 L 59.631 171.147 L 59.631 171.147 Z " fill="rgb(0,0,0)"/><path d=" M 60.331 272.686 L 60.331 278.246 L 12.225 296.217 L 12.225 296.217 Q 10.593 296.862 10.087 297.748 L 10.087 297.748 L 10.087 297.748 Q 9.582 298.634 8.883 301.616 L 8.883 301.616 L 5.774 301.052 L 5.774 281.873 L 8.961 281.55 L 10.437 287.272 L 10.437 287.272 Q 10.515 287.836 10.865 287.836 L 10.865 287.836 L 10.865 287.836 Q 11.214 287.836 12.147 287.514 L 12.147 287.514 L 47.352 275.103 L 47.352 275.103 Q 49.295 274.378 49.994 274.378 L 49.994 274.378 L 49.994 273.572 L 15.411 261.001 L 15.411 261.001 Q 12.38 259.873 11.447 259.873 L 11.447 259.873 L 11.447 259.873 Q 9.971 259.873 8.883 265.755 L 8.883 265.755 L 5.774 265.272 L 5.774 249.396 L 9.038 249.074 L 9.038 249.074 Q 9.66 252.378 10.437 253.265 L 10.437 253.265 L 10.437 253.265 Q 11.214 254.151 13.39 254.957 L 13.39 254.957 L 60.331 272.686 L 60.331 272.686 Z  M 59.631 232.715 L 59.631 247.946 L 56.523 248.51 L 56.523 248.51 Q 55.745 245.448 55.279 244.763 L 55.279 244.763 L 55.279 244.763 Q 54.813 244.078 53.181 243.433 L 53.181 243.433 L 5.075 225.382 L 5.075 218.693 L 54.424 200.239 L 54.424 200.239 Q 55.59 199.836 56.367 195.484 L 56.367 195.484 L 59.631 195.807 L 59.631 214.583 L 56.523 215.067 L 56.523 215.067 Q 55.435 209.426 53.958 209.426 L 53.958 209.426 L 53.958 209.426 Q 53.336 209.426 52.326 209.748 L 52.326 209.748 L 42.223 213.294 L 42.223 234.166 L 53.259 238.276 L 53.259 238.276 Q 54.191 238.598 54.541 238.598 L 54.541 238.598 L 54.541 238.598 Q 54.891 238.598 54.968 238.114 L 54.968 238.114 L 56.445 232.393 L 59.631 232.715 L 59.631 232.715 Z  M 14.012 223.931 L 38.104 232.634 L 38.104 214.664 L 16.266 222.561 L 16.266 222.561 Q 14.634 223.125 14.012 223.125 L 14.012 223.125 L 14.012 223.931 L 14.012 223.931 Z  M 59.631 171.147 L 59.631 191.052 L 56.6 191.536 L 56.6 191.536 Q 55.901 187.265 55.046 186.338 L 55.046 186.338 L 55.046 186.338 Q 54.191 185.411 51.782 185.411 L 51.782 185.411 L 13.624 185.411 L 13.624 185.411 Q 11.214 185.411 10.359 186.338 L 10.359 186.338 L 10.359 186.338 Q 9.505 187.265 8.805 191.536 L 8.805 191.536 L 5.774 191.052 L 5.774 184.847 L 5.774 180.092 L 5.774 175.66 L 44.943 148.1 L 44.943 147.536 L 15.178 147.536 L 15.178 147.536 Q 11.681 147.536 10.515 148.865 L 10.515 148.865 L 10.515 148.865 Q 9.349 150.195 8.805 155.272 L 8.805 155.272 L 5.774 154.788 L 5.774 135.851 L 8.805 135.528 L 9.738 140.525 L 9.738 140.525 Q 10.049 142.136 11.758 142.136 L 11.758 142.136 L 59.631 142.136 L 59.631 146.891 L 59.631 146.891 L 59.631 147.133 L 13.624 179.367 L 13.624 180.012 L 51.86 180.012 L 51.86 180.012 Q 53.803 180.012 54.735 179.246 L 54.735 179.246 L 54.735 179.246 Q 55.668 178.481 55.901 176.466 L 55.901 176.466 L 56.6 170.825 L 59.631 171.147 L 59.631 171.147 Z " fill="rgb(0,0,0)"/><g style="isolation: isolate;"><path d=" M 60.331 272.686 L 60.331 278.246 L 12.225 296.217 L 12.225 296.217 Q 10.593 296.862 10.087 297.748 L 10.087 297.748 L 10.087 297.748 Q 9.582 298.634 8.883 301.616 L 8.883 301.616 L 5.774 301.052 L 5.774 281.873 L 8.961 281.55 L 10.437 287.272 L 10.437 287.272 Q 10.515 287.836 10.865 287.836 L 10.865 287.836 L 10.865 287.836 Q 11.214 287.836 12.147 287.514 L 12.147 287.514 L 47.352 275.103 L 47.352 275.103 Q 49.295 274.378 49.994 274.378 L 49.994 274.378 L 49.994 273.572 L 15.411 261.001 L 15.411 261.001 Q 12.38 259.873 11.447 259.873 L 11.447 259.873 L 11.447 259.873 Q 9.971 259.873 8.883 265.755 L 8.883 265.755 L 5.774 265.272 L 5.774 249.396 L 9.038 249.074 L 9.038 249.074 Q 9.66 252.378 10.437 253.265 L 10.437 253.265 L 10.437 253.265 Q 11.214 254.151 13.39 254.957 L 13.39 254.957 L 60.331 272.686 L 60.331 272.686 Z  M 59.631 232.715 L 59.631 247.946 L 56.523 248.51 L 56.523 248.51 Q 55.745 245.448 55.279 244.763 L 55.279 244.763 L 55.279 244.763 Q 54.813 244.078 53.181 243.433 L 53.181 243.433 L 5.075 225.382 L 5.075 218.693 L 54.424 200.239 L 54.424 200.239 Q 55.59 199.836 56.367 195.484 L 56.367 195.484 L 59.631 195.807 L 59.631 214.583 L 56.523 215.067 L 56.523 215.067 Q 55.435 209.426 53.958 209.426 L 53.958 209.426 L 53.958 209.426 Q 53.336 209.426 52.326 209.748 L 52.326 209.748 L 42.223 213.294 L 42.223 234.166 L 53.259 238.276 L 53.259 238.276 Q 54.191 238.598 54.541 238.598 L 54.541 238.598 L 54.541 238.598 Q 54.891 238.598 54.968 238.114 L 54.968 238.114 L 56.445 232.393 L 59.631 232.715 L 59.631 232.715 Z  M 14.012 223.931 L 38.104 232.634 L 38.104 214.664 L 16.266 222.561 L 16.266 222.561 Q 14.634 223.125 14.012 223.125 L 14.012 223.125 L 14.012 223.931 L 14.012 223.931 Z  M 59.631 171.147 L 59.631 191.052 L 56.6 191.536 L 56.6 191.536 Q 55.901 187.265 55.046 186.338 L 55.046 186.338 L 55.046 186.338 Q 54.191 185.411 51.782 185.411 L 51.782 185.411 L 13.624 185.411 L 13.624 185.411 Q 11.214 185.411 10.359 186.338 L 10.359 186.338 L 10.359 186.338 Q 9.505 187.265 8.805 191.536 L 8.805 191.536 L 5.774 191.052 L 5.774 184.847 L 5.774 180.092 L 5.774 175.66 L 44.943 148.1 L 44.943 147.536 L 15.178 147.536 L 15.178 147.536 Q 11.681 147.536 10.515 148.865 L 10.515 148.865 L 10.515 148.865 Q 9.349 150.195 8.805 155.272 L 8.805 155.272 L 5.774 154.788 L 5.774 135.851 L 8.805 135.528 L 9.738 140.525 L 9.738 140.525 Q 10.049 142.136 11.758 142.136 L 11.758 142.136 L 59.631 142.136 L 59.631 146.891 L 59.631 146.891 L 59.631 147.133 L 13.624 179.367 L 13.624 180.012 L 51.86 180.012 L 51.86 180.012 Q 53.803 180.012 54.735 179.246 L 54.735 179.246 L 54.735 179.246 Q 55.668 178.481 55.901 176.466 L 55.901 176.466 L 56.6 170.825 L 59.631 171.147 L 59.631 171.147 Z " fill="none" vector-effect="non-scaling-stroke" stroke-width="2" stroke="rgb(0,0,0)" stroke-linejoin="miter" stroke-linecap="square" stroke-miterlimit="3"/></g><path d=" M 154.169 298.806 L 154.169 298.806 L 154.169 298.806 Q 118.574 298.806 99.308 278.088 L 99.308 278.088 L 99.308 278.088 Q 80.041 257.371 80.041 221.365 L 80.041 221.365 L 80.041 221.365 Q 80.041 185.359 100.482 163.312 L 100.482 163.312 L 100.482 163.312 Q 120.923 141.265 156.519 141.265 L 156.519 141.265 L 156.519 141.265 Q 192.114 141.265 211.38 161.539 L 211.38 161.539 L 211.38 161.539 Q 230.647 181.813 230.647 217.82 L 230.647 217.82 L 230.647 217.82 Q 230.647 253.826 210.206 276.316 L 210.206 276.316 L 210.206 276.316 Q 189.765 298.806 154.169 298.806 Z  M 157.341 287.062 L 157.341 287.062 L 157.341 287.062 Q 170.029 287.062 179.544 281.523 L 179.544 281.523 L 179.544 281.523 Q 189.06 275.983 194.464 266.234 L 194.464 266.234 L 194.464 266.234 Q 204.567 247.4 204.567 218.817 L 204.567 218.817 L 204.567 218.817 Q 204.567 190.233 191.292 171.621 L 191.292 171.621 L 191.292 171.621 Q 178.017 153.009 153.347 153.009 L 153.347 153.009 L 153.347 153.009 Q 140.659 153.009 131.144 158.437 L 131.144 158.437 L 131.144 158.437 Q 121.628 163.866 116.459 173.394 L 116.459 173.394 L 116.459 173.394 Q 106.121 191.784 106.121 220.257 L 106.121 220.257 L 106.121 220.257 Q 106.121 248.729 119.279 267.896 L 119.279 267.896 L 119.279 267.896 Q 132.436 287.062 157.341 287.062 Z  M 358.07 241.639 L 358.07 169.848 L 358.07 169.848 Q 358.07 160.099 354.193 156.775 L 354.193 156.775 L 354.193 156.775 Q 350.316 153.452 335.514 151.901 L 335.514 151.901 L 336.924 143.259 L 392.138 143.259 L 393.078 151.901 L 378.51 154.56 L 378.51 154.56 Q 374.281 155.446 374.046 157.662 L 374.046 157.662 L 374.046 157.662 Q 373.811 158.548 373.811 160.321 L 373.811 160.321 L 373.811 239.866 L 373.811 239.866 Q 373.811 267.12 358.07 282.963 L 358.07 282.963 L 358.07 282.963 Q 342.328 298.806 310.844 298.806 L 310.844 298.806 L 310.844 298.806 Q 250.226 298.806 250.226 241.639 L 250.226 241.639 L 250.226 165.638 L 250.226 165.638 Q 250.226 158.77 247.524 156.332 L 247.524 156.332 L 247.524 156.332 Q 244.822 153.895 232.37 151.901 L 232.37 151.901 L 233.779 143.259 L 291.343 143.259 L 292.283 151.901 L 277.715 154.56 L 277.715 154.56 Q 273.016 155.446 273.016 160.321 L 273.016 160.321 L 273.016 238.315 L 273.016 238.315 Q 273.016 260.916 282.884 272.438 L 282.884 272.438 L 282.884 272.438 Q 292.753 283.96 314.956 283.96 L 314.956 283.96 L 314.956 283.96 Q 337.159 283.96 347.614 271.552 L 347.614 271.552 L 347.614 271.552 Q 358.07 259.143 358.07 241.639 L 358.07 241.639 L 358.07 241.639 Z  M 460.588 296.811 L 392.216 296.811 L 390.806 288.17 L 390.806 288.17 Q 403.259 286.176 405.961 283.738 L 405.961 283.738 L 405.961 283.738 Q 408.663 281.301 408.663 274.432 L 408.663 274.432 L 408.663 165.638 L 408.663 165.638 Q 408.663 158.77 405.961 156.332 L 405.961 156.332 L 405.961 156.332 Q 403.259 153.895 390.806 151.901 L 390.806 151.901 L 392.216 143.259 L 465.757 143.259 L 465.757 143.259 Q 485.962 143.259 500.765 149.353 L 500.765 149.353 L 500.765 149.353 Q 515.567 155.446 523.79 166.082 L 523.79 166.082 L 523.79 166.082 Q 539.767 186.467 539.767 215.271 L 539.767 215.271 L 539.767 215.271 Q 539.767 246.957 521.91 270.444 L 521.91 270.444 L 521.91 270.444 Q 512.982 282.409 497.123 289.61 L 497.123 289.61 L 497.123 289.61 Q 481.263 296.811 460.588 296.811 L 460.588 296.811 L 460.588 296.811 Z  M 431.453 155.003 L 431.453 276.205 L 431.453 276.205 Q 431.453 281.079 436.387 281.966 L 436.387 281.966 L 436.387 281.966 Q 452.834 285.068 461.292 285.068 L 461.292 285.068 L 461.292 285.068 Q 487.372 285.068 500.53 267.563 L 500.53 267.563 L 500.53 267.563 Q 513.687 250.059 513.687 220.811 L 513.687 220.811 L 513.687 220.811 Q 513.687 202.42 508.635 188.904 L 508.635 188.904 L 508.635 188.904 Q 503.584 175.388 495.126 168.297 L 495.126 168.297 L 495.126 168.297 Q 479.149 155.003 460.353 155.003 L 460.353 155.003 L 431.453 155.003 L 431.453 155.003 Z " fill="rgb(0,0,0)"/><path d=" M 154.169 298.806 L 154.169 298.806 L 154.169 298.806 Q 118.574 298.806 99.308 278.088 L 99.308 278.088 L 99.308 278.088 Q 80.041 257.371 80.041 221.365 L 80.041 221.365 L 80.041 221.365 Q 80.041 185.359 100.482 163.312 L 100.482 163.312 L 100.482 163.312 Q 120.923 141.265 156.519 141.265 L 156.519 141.265 L 156.519 141.265 Q 192.114 141.265 211.38 161.539 L 211.38 161.539 L 211.38 161.539 Q 230.647 181.813 230.647 217.82 L 230.647 217.82 L 230.647 217.82 Q 230.647 253.826 210.206 276.316 L 210.206 276.316 L 210.206 276.316 Q 189.765 298.806 154.169 298.806 Z  M 157.341 287.062 L 157.341 287.062 L 157.341 287.062 Q 170.029 287.062 179.544 281.523 L 179.544 281.523 L 179.544 281.523 Q 189.06 275.983 194.464 266.234 L 194.464 266.234 L 194.464 266.234 Q 204.567 247.4 204.567 218.817 L 204.567 218.817 L 204.567 218.817 Q 204.567 190.233 191.292 171.621 L 191.292 171.621 L 191.292 171.621 Q 178.017 153.009 153.347 153.009 L 153.347 153.009 L 153.347 153.009 Q 140.659 153.009 131.144 158.437 L 131.144 158.437 L 131.144 158.437 Q 121.628 163.866 116.459 173.394 L 116.459 173.394 L 116.459 173.394 Q 106.121 191.784 106.121 220.257 L 106.121 220.257 L 106.121 220.257 Q 106.121 248.729 119.279 267.896 L 119.279 267.896 L 119.279 267.896 Q 132.436 287.062 157.341 287.062 Z  M 358.07 241.639 L 358.07 169.848 L 358.07 169.848 Q 358.07 160.099 354.193 156.775 L 354.193 156.775 L 354.193 156.775 Q 350.316 153.452 335.514 151.901 L 335.514 151.901 L 336.924 143.259 L 392.138 143.259 L 393.078 151.901 L 378.51 154.56 L 378.51 154.56 Q 374.281 155.446 374.046 157.662 L 374.046 157.662 L 374.046 157.662 Q 373.811 158.548 373.811 160.321 L 373.811 160.321 L 373.811 239.866 L 373.811 239.866 Q 373.811 267.12 358.07 282.963 L 358.07 282.963 L 358.07 282.963 Q 342.328 298.806 310.844 298.806 L 310.844 298.806 L 310.844 298.806 Q 250.226 298.806 250.226 241.639 L 250.226 241.639 L 250.226 165.638 L 250.226 165.638 Q 250.226 158.77 247.524 156.332 L 247.524 156.332 L 247.524 156.332 Q 244.822 153.895 232.37 151.901 L 232.37 151.901 L 233.779 143.259 L 291.343 143.259 L 292.283 151.901 L 277.715 154.56 L 277.715 154.56 Q 273.016 155.446 273.016 160.321 L 273.016 160.321 L 273.016 238.315 L 273.016 238.315 Q 273.016 260.916 282.884 272.438 L 282.884 272.438 L 282.884 272.438 Q 292.753 283.96 314.956 283.96 L 314.956 283.96 L 314.956 283.96 Q 337.159 283.96 347.614 271.552 L 347.614 271.552 L 347.614 271.552 Q 358.07 259.143 358.07 241.639 L 358.07 241.639 L 358.07 241.639 Z  M 460.588 296.811 L 392.216 296.811 L 390.806 288.17 L 390.806 288.17 Q 403.259 286.176 405.961 283.738 L 405.961 283.738 L 405.961 283.738 Q 408.663 281.301 408.663 274.432 L 408.663 274.432 L 408.663 165.638 L 408.663 165.638 Q 408.663 158.77 405.961 156.332 L 405.961 156.332 L 405.961 156.332 Q 403.259 153.895 390.806 151.901 L 390.806 151.901 L 392.216 143.259 L 465.757 143.259 L 465.757 143.259 Q 485.962 143.259 500.765 149.353 L 500.765 149.353 L 500.765 149.353 Q 515.567 155.446 523.79 166.082 L 523.79 166.082 L 523.79 166.082 Q 539.767 186.467 539.767 215.271 L 539.767 215.271 L 539.767 215.271 Q 539.767 246.957 521.91 270.444 L 521.91 270.444 L 521.91 270.444 Q 512.982 282.409 497.123 289.61 L 497.123 289.61 L 497.123 289.61 Q 481.263 296.811 460.588 296.811 L 460.588 296.811 L 460.588 296.811 Z  M 431.453 155.003 L 431.453 276.205 L 431.453 276.205 Q 431.453 281.079 436.387 281.966 L 436.387 281.966 L 436.387 281.966 Q 452.834 285.068 461.292 285.068 L 461.292 285.068 L 461.292 285.068 Q 487.372 285.068 500.53 267.563 L 500.53 267.563 L 500.53 267.563 Q 513.687 250.059 513.687 220.811 L 513.687 220.811 L 513.687 220.811 Q 513.687 202.42 508.635 188.904 L 508.635 188.904 L 508.635 188.904 Q 503.584 175.388 495.126 168.297 L 495.126 168.297 L 495.126 168.297 Q 479.149 155.003 460.353 155.003 L 460.353 155.003 L 431.453 155.003 L 431.453 155.003 Z " fill="rgb(0,0,0)"/><g style="isolation: isolate;"><path d=" M 154.169 298.806 L 154.169 298.806 L 154.169 298.806 Q 118.574 298.806 99.308 278.088 L 99.308 278.088 L 99.308 278.088 Q 80.041 257.371 80.041 221.365 L 80.041 221.365 L 80.041 221.365 Q 80.041 185.359 100.482 163.312 L 100.482 163.312 L 100.482 163.312 Q 120.923 141.265 156.519 141.265 L 156.519 141.265 L 156.519 141.265 Q 192.114 141.265 211.38 161.539 L 211.38 161.539 L 211.38 161.539 Q 230.647 181.813 230.647 217.82 L 230.647 217.82 L 230.647 217.82 Q 230.647 253.826 210.206 276.316 L 210.206 276.316 L 210.206 276.316 Q 189.765 298.806 154.169 298.806 Z  M 157.341 287.062 L 157.341 287.062 L 157.341 287.062 Q 170.029 287.062 179.544 281.523 L 179.544 281.523 L 179.544 281.523 Q 189.06 275.983 194.464 266.234 L 194.464 266.234 L 194.464 266.234 Q 204.567 247.4 204.567 218.817 L 204.567 218.817 L 204.567 218.817 Q 204.567 190.233 191.292 171.621 L 191.292 171.621 L 191.292 171.621 Q 178.017 153.009 153.347 153.009 L 153.347 153.009 L 153.347 153.009 Q 140.659 153.009 131.144 158.437 L 131.144 158.437 L 131.144 158.437 Q 121.628 163.866 116.459 173.394 L 116.459 173.394 L 116.459 173.394 Q 106.121 191.784 106.121 220.257 L 106.121 220.257 L 106.121 220.257 Q 106.121 248.729 119.279 267.896 L 119.279 267.896 L 119.279 267.896 Q 132.436 287.062 157.341 287.062 Z  M 358.07 241.639 L 358.07 169.848 L 358.07 169.848 Q 358.07 160.099 354.193 156.775 L 354.193 156.775 L 354.193 156.775 Q 350.316 153.452 335.514 151.901 L 335.514 151.901 L 336.924 143.259 L 392.138 143.259 L 393.078 151.901 L 378.51 154.56 L 378.51 154.56 Q 374.281 155.446 374.046 157.662 L 374.046 157.662 L 374.046 157.662 Q 373.811 158.548 373.811 160.321 L 373.811 160.321 L 373.811 239.866 L 373.811 239.866 Q 373.811 267.12 358.07 282.963 L 358.07 282.963 L 358.07 282.963 Q 342.328 298.806 310.844 298.806 L 310.844 298.806 L 310.844 298.806 Q 250.226 298.806 250.226 241.639 L 250.226 241.639 L 250.226 165.638 L 250.226 165.638 Q 250.226 158.77 247.524 156.332 L 247.524 156.332 L 247.524 156.332 Q 244.822 153.895 232.37 151.901 L 232.37 151.901 L 233.779 143.259 L 291.343 143.259 L 292.283 151.901 L 277.715 154.56 L 277.715 154.56 Q 273.016 155.446 273.016 160.321 L 273.016 160.321 L 273.016 238.315 L 273.016 238.315 Q 273.016 260.916 282.884 272.438 L 282.884 272.438 L 282.884 272.438 Q 292.753 283.96 314.956 283.96 L 314.956 283.96 L 314.956 283.96 Q 337.159 283.96 347.614 271.552 L 347.614 271.552 L 347.614 271.552 Q 358.07 259.143 358.07 241.639 L 358.07 241.639 L 358.07 241.639 Z  M 460.588 296.811 L 392.216 296.811 L 390.806 288.17 L 390.806 288.17 Q 403.259 286.176 405.961 283.738 L 405.961 283.738 L 405.961 283.738 Q 408.663 281.301 408.663 274.432 L 408.663 274.432 L 408.663 165.638 L 408.663 165.638 Q 408.663 158.77 405.961 156.332 L 405.961 156.332 L 405.961 156.332 Q 403.259 153.895 390.806 151.901 L 390.806 151.901 L 392.216 143.259 L 465.757 143.259 L 465.757 143.259 Q 485.962 143.259 500.765 149.353 L 500.765 149.353 L 500.765 149.353 Q 515.567 155.446 523.79 166.082 L 523.79 166.082 L 523.79 166.082 Q 539.767 186.467 539.767 215.271 L 539.767 215.271 L 539.767 215.271 Q 539.767 246.957 521.91 270.444 L 521.91 270.444 L 521.91 270.444 Q 512.982 282.409 497.123 289.61 L 497.123 289.61 L 497.123 289.61 Q 481.263 296.811 460.588 296.811 L 460.588 296.811 L 460.588 296.811 Z  M 431.453 155.003 L 431.453 276.205 L 431.453 276.205 Q 431.453 281.079 436.387 281.966 L 436.387 281.966 L 436.387 281.966 Q 452.834 285.068 461.292 285.068 L 461.292 285.068 L 461.292 285.068 Q 487.372 285.068 500.53 267.563 L 500.53 267.563 L 500.53 267.563 Q 513.687 250.059 513.687 220.811 L 513.687 220.811 L 513.687 220.811 Q 513.687 202.42 508.635 188.904 L 508.635 188.904 L 508.635 188.904 Q 503.584 175.388 495.126 168.297 L 495.126 168.297 L 495.126 168.297 Q 479.149 155.003 460.353 155.003 L 460.353 155.003 L 431.453 155.003 L 431.453 155.003 Z " fill="none" vector-effect="non-scaling-stroke" stroke-width="3" stroke="rgb(0,0,0)" stroke-linejoin="miter" stroke-linecap="square" stroke-miterlimit="3"/></g></g></svg>